<?xml version="1.0" encoding="UTF-8"?>
<svg version="1.1" xmlns="http://www.w3.org/2000/svg" width="379" height="285">
<path d="M0 0 C125.07 0 250.14 0 379 0 C379 94.05 379 188.1 379 285 C253.93 285 128.86 285 0 285 C0 190.95 0 96.9 0 0 Z " fill="#0E273B" transform="translate(0,0)"/>
<path d="M0 0 C2.85600471 2.30439369 4.91307084 4.86201069 7.1640625 7.74609375 C7.8240625 7.74609375 8.4840625 7.74609375 9.1640625 7.74609375 C10.69423611 6.1557279 10.69423611 6.1557279 12.2890625 4.12109375 C20.39209076 -5.37438036 31.92248638 -11.71862585 44.1640625 -14.25390625 C47.70278159 -14.47596255 51.2440496 -14.43905232 54.7890625 -14.44140625 C56.21025391 -14.45977539 56.21025391 -14.45977539 57.66015625 -14.47851562 C64.05757124 -14.49164302 69.94598532 -13.75280084 76.1640625 -12.25390625 C76.1640625 -11.59390625 76.1640625 -10.93390625 76.1640625 -10.25390625 C77.03417969 -10.12435547 77.03417969 -10.12435547 77.921875 -9.9921875 C83.58085589 -8.974318 87.0175942 -7.26321402 91.1640625 -3.25390625 C92.5384035 -2.10728257 93.91343974 -0.96149186 95.2890625 0.18359375 C98.58205882 3.06340042 100.84435621 6.01799436 103.1640625 9.74609375 C103.78410156 10.32359375 104.40414062 10.90109375 105.04296875 11.49609375 C107.62340431 14.23335136 109.21035458 17.21539244 110.8515625 20.55859375 C111.15900391 21.14962891 111.46644531 21.74066406 111.78320312 22.34960938 C115.28057623 29.36731426 115.31477568 36.48840256 115.41015625 44.15234375 C115.44308024 45.96615092 115.47629212 47.77995289 115.50976562 49.59375 C115.55717863 52.42428204 115.6016829 55.25479082 115.64086914 58.08544922 C115.68075192 60.83712216 115.73223292 63.58839492 115.78515625 66.33984375 C115.79777748 67.59794861 115.79777748 67.59794861 115.81065369 68.88146973 C115.94823352 75.47631018 117.04332652 81.06336771 120.2265625 86.93359375 C121.33063249 88.97924796 122.14179705 90.64844135 122.66015625 92.921875 C122.90958984 93.82486328 122.90958984 93.82486328 123.1640625 94.74609375 C123.8240625 95.07609375 124.4840625 95.40609375 125.1640625 95.74609375 C126.1640625 97.41276042 127.1640625 99.07942708 128.1640625 100.74609375 C136.90270227 112.15487345 148.21081248 118.5110311 162.1640625 121.74609375 C162.1640625 122.40609375 162.1640625 123.06609375 162.1640625 123.74609375 C171.4040625 123.41609375 180.6440625 123.08609375 190.1640625 122.74609375 C190.1640625 122.08609375 190.1640625 121.42609375 190.1640625 120.74609375 C191.4840625 120.74609375 192.8040625 120.74609375 194.1640625 120.74609375 C194.1640625 120.08609375 194.1640625 119.42609375 194.1640625 118.74609375 C194.70933594 118.52695313 195.25460937 118.3078125 195.81640625 118.08203125 C200.99318141 115.90513093 205.52775653 113.34284076 210.12109375 110.11328125 C212.1640625 108.74609375 212.1640625 108.74609375 214.3671875 107.67578125 C216.75780058 106.43889883 217.02110251 105.16647961 218.1640625 102.74609375 C220.5939096 98.53083726 220.5939096 98.53083726 223.1640625 96.74609375 C227.28722082 95.99181591 231.30259855 96.18081369 235.4765625 96.37109375 C237.15975586 96.41169922 237.15975586 96.41169922 238.87695312 96.453125 C241.64128709 96.52370374 244.40168665 96.62224887 247.1640625 96.74609375 C245.89427644 102.48184001 242.35392209 106.89073224 239.1640625 111.74609375 C238.4834375 112.85984375 237.8028125 113.97359375 237.1015625 115.12109375 C234.80362753 118.23442499 232.18610322 120.34079603 229.1640625 122.74609375 C228.08125 123.89078125 228.08125 123.89078125 226.9765625 125.05859375 C221.66171019 130.1372304 215.68134123 135.82005217 208.1640625 136.74609375 C208.1640625 137.40609375 208.1640625 138.06609375 208.1640625 138.74609375 C202.59338973 140.33771454 197.95304669 140.95284319 192.1640625 140.74609375 C192.1640625 141.40609375 192.1640625 142.06609375 192.1640625 142.74609375 C175.09676448 147.7111259 156.71382955 144.26268277 140.1640625 138.74609375 C139.8340625 138.08609375 139.5040625 137.42609375 139.1640625 136.74609375 C137.529072 136.06484771 135.89332517 135.38536274 134.25390625 134.71484375 C125.50856537 130.66092873 116.62815256 123.71455843 111.1640625 115.74609375 C111.1640625 115.08609375 111.1640625 114.42609375 111.1640625 113.74609375 C110.5040625 113.74609375 109.8440625 113.74609375 109.1640625 113.74609375 C108.15897449 111.95727639 107.16013514 110.16494679 106.1640625 108.37109375 C105.6071875 107.37335938 105.0503125 106.375625 104.4765625 105.34765625 C103.1640625 102.74609375 103.1640625 102.74609375 103.1640625 100.74609375 C102.5040625 100.74609375 101.8440625 100.74609375 101.1640625 100.74609375 C100.8340625 98.76609375 100.5040625 96.78609375 100.1640625 94.74609375 C99.5040625 94.74609375 98.8440625 94.74609375 98.1640625 94.74609375 C93.1181949 79.38505768 92.56486071 64.53828021 92.70532227 48.51928711 C92.72926118 36.90184063 91.50287486 28.1848785 83.2890625 19.30859375 C79.80859266 16.10289785 76.39016422 13.85914461 72.1640625 11.74609375 C71.30167969 11.22660156 70.43929687 10.70710938 69.55078125 10.171875 C65.1298187 8.31068546 61.35310975 8.21016523 56.6015625 8.24609375 C55.71694336 8.25253906 54.83232422 8.25898437 53.92089844 8.265625 C44.08535787 8.53774043 35.93610275 10.75813583 28.5390625 17.62109375 C25.41045962 21.09219631 23.68820606 24.35297407 22.1640625 28.74609375 C21.8340625 29.07609375 21.5040625 29.40609375 21.1640625 29.74609375 C20.0314463 36.64572067 20.02429619 43.63989014 20.05053711 50.61181641 C20.05039108 51.64715515 20.05024506 52.6824939 20.0500946 53.74920654 C20.05078553 57.13621187 20.05853916 60.52316066 20.06640625 63.91015625 C20.06827335 66.27240977 20.06969587 68.63466368 20.07069397 70.99691772 C20.07449617 77.18806036 20.08430667 83.37917921 20.09539795 89.5703125 C20.10566164 95.89843423 20.11020218 102.22655983 20.11523438 108.5546875 C20.12593115 120.951835 20.14350917 133.34895867 20.1640625 145.74609375 C12.9040625 145.74609375 5.6440625 145.74609375 -1.8359375 145.74609375 C-1.8452832 142.50176514 -1.85462891 139.25743652 -1.86425781 135.91479492 C-1.89809451 125.16992275 -1.95368088 114.42524128 -2.01984024 103.68052197 C-2.05927176 97.16892203 -2.09148168 90.65745645 -2.10693359 84.14575195 C-2.12212832 77.8561839 -2.15662476 71.56698534 -2.20424652 65.27758217 C-2.21903113 62.88358086 -2.22697683 60.48952678 -2.22782135 58.09547997 C-2.23020146 54.730168 -2.25736676 51.36586858 -2.29003906 48.00073242 C-2.2850087 47.02104996 -2.27997833 46.04136749 -2.27479553 45.03199768 C-2.43579229 34.24399143 -5.7840311 25.7512216 -13.2578125 17.98046875 C-23.47603999 9.12467159 -33.71315634 8.02850337 -46.69970703 8.57128906 C-55.06578013 9.25587287 -61.84633175 14.16069452 -67.8359375 19.74609375 C-70.03742259 22.35352645 -71.36101716 24.71239848 -72.4609375 27.93359375 C-73.74528594 31.65544219 -73.74528594 31.65544219 -74.8359375 32.74609375 C-75.93400898 38.55174203 -75.99956255 44.26834014 -76.02539062 50.16357422 C-76.03368393 51.18711502 -76.04197723 52.21065582 -76.05052185 53.26521301 C-76.06785794 55.47719697 -76.08304203 57.68919862 -76.09629822 59.90121078 C-76.117391 63.39700778 -76.144404 66.89271487 -76.17297363 70.38845825 C-76.24266641 79.06273908 -76.30235555 87.73708321 -76.36199951 96.41143799 C-76.41283561 103.75589095 -76.46759979 111.10029321 -76.52781677 118.44467545 C-76.55446982 121.89758063 -76.57522929 125.35049041 -76.5958252 128.80343628 C-76.61241733 130.90395335 -76.6292882 133.00446825 -76.64648438 135.10498047 C-76.65066879 136.07221542 -76.65485321 137.03945038 -76.65916443 138.03599548 C-76.67167992 139.34811256 -76.67167992 139.34811256 -76.68444824 140.68673706 C-76.68960197 141.45102964 -76.69475571 142.21532223 -76.70006561 143.00277519 C-76.8359375 144.74609375 -76.8359375 144.74609375 -77.8359375 145.74609375 C-79.39766495 145.83294978 -80.96323094 145.85311594 -82.52734375 145.84375 C-83.47158203 145.84052734 -84.41582031 145.83730469 -85.38867188 145.83398438 C-86.38189453 145.82560547 -87.37511719 145.81722656 -88.3984375 145.80859375 C-89.39552734 145.80408203 -90.39261719 145.79957031 -91.41992188 145.79492188 C-93.89198599 145.78309382 -96.36393268 145.76661224 -98.8359375 145.74609375 C-98.88282119 131.74152397 -98.9178728 117.7369665 -98.93956184 103.73233414 C-98.94997438 97.2285921 -98.96408725 90.72490299 -98.98681641 84.22119141 C-99.00863513 77.93827549 -99.02052514 71.65541031 -99.02569199 65.37245941 C-99.02937157 62.98203483 -99.03655666 60.59161285 -99.04739761 58.20121002 C-99.06203256 54.83883278 -99.06391044 51.47666206 -99.06298828 48.11425781 C-99.07017883 47.13817062 -99.07736938 46.16208344 -99.08477783 45.15641785 C-99.03982489 29.89094363 -95.4349023 18.6036385 -85.8359375 6.74609375 C-85.22878906 5.93269531 -84.62164062 5.11929688 -83.99609375 4.28125 C-81.65965539 1.53920933 -79.25641792 -0.40180221 -76.3359375 -2.50390625 C-75.3975 -3.1896875 -74.4590625 -3.87546875 -73.4921875 -4.58203125 C-71.152985 -6.05435282 -69.53020927 -6.82180606 -66.8359375 -7.25390625 C-66.8359375 -7.91390625 -66.8359375 -8.57390625 -66.8359375 -9.25390625 C-65.13016408 -9.90647081 -63.42117661 -10.55063666 -61.7109375 -11.19140625 C-60.75960937 -11.55105469 -59.80828125 -11.91070312 -58.828125 -12.28125 C-37.59237527 -19.18425481 -17.41415195 -12.41103845 0 0 Z " fill="#F8F8F9" transform="translate(115.8359375,91.25390625)"/>
<path d="M0 0 C9.83928879 -0.28273818 19.15081938 1.31946411 28.7734375 3.15234375 C28.7734375 3.81234375 28.7734375 4.47234375 28.7734375 5.15234375 C31.7434375 5.64734375 31.7434375 5.64734375 34.7734375 6.15234375 C34.7734375 6.81234375 34.7734375 7.47234375 34.7734375 8.15234375 C35.6603125 8.25546875 36.5471875 8.35859375 37.4609375 8.46484375 C47.40339193 10.52837203 56.70128482 19.3168134 62.7734375 27.15234375 C63.94132812 28.52712891 63.94132812 28.52712891 65.1328125 29.9296875 C65.96296875 30.91066406 66.793125 31.89164063 67.6484375 32.90234375 C68.42960937 33.8253125 69.21078125 34.74828125 70.015625 35.69921875 C71.7734375 38.15234375 71.7734375 38.15234375 71.7734375 41.15234375 C72.4334375 41.15234375 73.0934375 41.15234375 73.7734375 41.15234375 C74.19496094 42.22355469 74.61648438 43.29476562 75.05078125 44.3984375 C75.60403069 45.79562677 76.15742352 47.19275926 76.7109375 48.58984375 C76.98873047 49.29689453 77.26652344 50.00394531 77.55273438 50.73242188 C78.73565784 54.19908256 78.73565784 54.19908256 80.7734375 57.15234375 C82.65445466 65.01966372 82.96021866 72.85345771 82.9609375 80.90234375 C82.96202515 82.24292847 82.96202515 82.24292847 82.96313477 83.6105957 C82.90802339 90.01775786 82.90802339 90.01775786 81.7734375 91.15234375 C80.2552523 91.24812968 78.73261354 91.27422522 77.21141052 91.27259827 C75.73266449 91.27466026 75.73266449 91.27466026 74.2240448 91.27676392 C73.13360367 91.27316864 72.04316254 91.26957336 70.91967773 91.26586914 C69.20770706 91.26608818 69.20770706 91.26608818 67.46115112 91.26631165 C63.66809219 91.26561193 59.87508166 91.25781682 56.08203125 91.25 C53.46029182 91.24813603 50.83855204 91.24671203 48.21681213 91.24571228 C42.00841795 91.24259926 35.80004129 91.23438627 29.59165484 91.22436279 C22.52526309 91.21320074 15.45887051 91.20769097 8.39247215 91.20266736 C-6.14721641 91.19220363 -20.68688598 91.17385851 -35.2265625 91.15234375 C-35.2265625 83.89234375 -35.2265625 76.63234375 -35.2265625 69.15234375 C-3.8765625 69.15234375 27.4734375 69.15234375 59.7734375 69.15234375 C59.4434375 65.52234375 59.1134375 61.89234375 58.7734375 58.15234375 C58.1134375 58.15234375 57.4534375 58.15234375 56.7734375 58.15234375 C52.7734375 51.52734375 52.7734375 51.52734375 52.7734375 48.15234375 C52.1134375 48.15234375 51.4534375 48.15234375 50.7734375 48.15234375 C48.7734375 45.15234375 48.7734375 45.15234375 48.7734375 42.15234375 C47.2884375 41.65734375 47.2884375 41.65734375 45.7734375 41.15234375 C44.62942234 39.97468108 43.48618089 38.7962528 42.34765625 37.61328125 C35.52780529 31.28418879 26.62692071 26.80838871 17.7734375 24.15234375 C17.7734375 23.49234375 17.7734375 22.83234375 17.7734375 22.15234375 C13.91933543 22.0938733 10.06534885 22.0585897 6.2109375 22.02734375 C5.12490234 22.01058594 4.03886719 21.99382812 2.91992188 21.9765625 C-2.92694921 21.94101921 -7.69101542 22.30473671 -13.2265625 24.15234375 C-14.5465625 24.15234375 -15.8665625 24.15234375 -17.2265625 24.15234375 C-17.2265625 24.81234375 -17.2265625 25.47234375 -17.2265625 26.15234375 C-18.17015625 26.37277344 -18.17015625 26.37277344 -19.1328125 26.59765625 C-24.95391744 28.12306628 -28.93895582 30.0229931 -33.4375 34.04296875 C-35.2265625 35.15234375 -35.2265625 35.15234375 -37.32421875 35.08984375 C-39.90911978 33.81597055 -40.27103841 32.5641903 -41.2890625 29.90234375 C-42.39281334 27.13420672 -43.38805657 24.90731826 -45.0390625 22.40234375 C-46.2265625 20.15234375 -46.2265625 20.15234375 -46.05859375 17.70703125 C-44.55634434 13.09449082 -40.27519342 11.43260714 -36.2265625 9.15234375 C-33.86754262 7.99596146 -31.67353866 7.05646546 -29.2265625 6.15234375 C-28.1953125 5.73855469 -27.1640625 5.32476562 -26.1015625 4.8984375 C-17.14043914 1.4495841 -9.48101486 0.44765082 0 0 Z " fill="#FBFBFB" transform="translate(287.2265625,75.84765625)"/>
<path d="M0 0 C0.33 0 0.66 0 1 0 C1 1.65 1 3.3 1 5 C-30.02 5 -61.04 5 -93 5 C-93 10.94 -93 16.88 -93 23 C-55.05 23 -17.1 23 22 23 C22 16.73 22 10.46 22 4 C22.33 4 22.66 4 23 4 C23.02888146 7.31248187 23.04675799 10.62493167 23.0625 13.9375 C23.07087891 14.88302734 23.07925781 15.82855469 23.08789062 16.80273438 C23.09111328 17.70185547 23.09433594 18.60097656 23.09765625 19.52734375 C23.10289307 20.35999756 23.10812988 21.19265137 23.11352539 22.05053711 C23 24 23 24 22 25 C20.4818148 25.09578593 18.95917604 25.12188147 17.43797302 25.12025452 C15.95922699 25.12231651 15.95922699 25.12231651 14.4506073 25.12442017 C13.36016617 25.12082489 12.26972504 25.11722961 11.14624023 25.11352539 C9.43426956 25.11374443 9.43426956 25.11374443 7.68771362 25.1139679 C3.89465469 25.11326818 0.10164416 25.10547307 -3.69140625 25.09765625 C-6.31314568 25.09579228 -8.93488546 25.09436828 -11.55662537 25.09336853 C-17.76501955 25.09025551 -23.97339621 25.08204252 -30.18178266 25.07201904 C-37.24817441 25.06085699 -44.31456699 25.05534722 -51.38096535 25.05032361 C-65.92065391 25.03985988 -80.46032348 25.02151476 -95 25 C-95 17.74 -95 10.48 -95 3 C-63.65 3 -32.3 3 0 3 C0 2.01 0 1.02 0 0 Z " fill="#CDD0D4" transform="translate(347,142)"/>
<path d="M0 0 C0.83309052 2.90013371 1.11642598 5.44732051 1.08901978 8.460495 C1.08342545 9.34803467 1.07783112 10.23557434 1.07206726 11.15000916 C1.06069229 12.11588455 1.04931732 13.08175995 1.03759766 14.0769043 C1.02959641 15.10000702 1.02159515 16.12310974 1.01335144 17.17721558 C0.98546523 20.55961839 0.94999491 23.94189254 0.9140625 27.32421875 C0.89229766 29.67022927 0.87084794 32.01624274 0.84970093 34.36225891 C0.80420562 39.27743402 0.75497757 44.19255398 0.703125 49.10766602 C0.63678694 55.42313116 0.57956568 61.73864001 0.52509499 68.05421734 C0.4823605 72.8967716 0.43490978 77.73927067 0.38599777 82.58176613 C0.36302697 84.9114831 0.34152657 87.24121503 0.32149124 89.57095909 C0.29284676 92.81780314 0.25789331 96.06451772 0.22119141 99.3112793 C0.2138649 100.28322739 0.20653839 101.25517548 0.19898987 102.25657654 C0.18775589 103.13565674 0.17652191 104.01473694 0.16494751 104.92045593 C0.15719614 105.68864497 0.14944477 106.45683401 0.14145851 107.24830151 C0 109 0 109 -1 110 C-7.93 110 -14.86 110 -22 110 C-22 74.03 -22 38.06 -22 1 C-21.67 1 -21.34 1 -21 1 C-21 36.31 -21 71.62 -21 108 C-14.73 108 -8.46 108 -2 108 C-2 73.35 -2 38.7 -2 3 C-1.34 3 -0.68 3 0 3 C0 2.01 0 1.02 0 0 Z " fill="#B2B5BC" transform="translate(39,127)"/>
<path d="M0 0 C1.03688965 0.05236816 2.0737793 0.10473633 3.14208984 0.15869141 C4.82431641 0.23603516 4.82431641 0.23603516 6.54052734 0.31494141 C7.71615234 0.37939453 8.89177734 0.44384766 10.10302734 0.51025391 C11.87806641 0.59533203 11.87806641 0.59533203 13.68896484 0.68212891 C16.61923847 0.82391634 19.54869507 0.97535724 22.47802734 1.13525391 C22.80802734 2.78525391 23.13802734 4.43525391 23.47802734 6.13525391 C22.81802734 6.13525391 22.15802734 6.13525391 21.47802734 6.13525391 C21.47802734 5.14525391 21.47802734 4.15525391 21.47802734 3.13525391 C17.53967857 3.21599251 13.60289407 3.32884767 9.66552734 3.44775391 C8.54597656 3.4703125 7.42642578 3.49287109 6.27294922 3.51611328 C5.19980469 3.5515625 4.12666016 3.58701172 3.02099609 3.62353516 C2.03123779 3.64971924 1.04147949 3.67590332 0.02172852 3.70288086 C-2.84679224 4.19046606 -3.75292177 4.88397285 -5.52197266 7.13525391 C-4.43289102 0.23773685 -4.43289102 0.23773685 0 0 Z " fill="#22394B" transform="translate(341.52197265625,184.86474609375)"/>
<path d="M0 0 C0.9897583 0.02094727 1.9795166 0.04189453 2.99926758 0.06347656 C4.07241211 0.07636719 5.14555664 0.08925781 6.2512207 0.10253906 C7.37077148 0.13605469 8.49032227 0.16957031 9.64379883 0.20410156 C10.77495117 0.22214844 11.90610352 0.24019531 13.0715332 0.25878906 C15.86730258 0.30597504 18.66137855 0.37179561 21.45629883 0.45410156 C21.12629883 1.77410156 20.79629883 3.09410156 20.45629883 4.45410156 C20.12629883 3.79410156 19.79629883 3.13410156 19.45629883 2.45410156 C8.56629883 2.94910156 8.56629883 2.94910156 -2.54370117 3.45410156 C-2.87370117 4.11410156 -3.20370117 4.77410156 -3.54370117 5.45410156 C-4.20370117 5.12410156 -4.86370117 4.79410156 -5.54370117 4.45410156 C-3.92596696 1.68358194 -3.23390118 0.57731608 0 0 Z " fill="#D2D6D9" transform="translate(341.543701171875,187.5458984375)"/>
<path d="M0 0 C0.33 0.66 0.66 1.32 1 2 C0.34 2 -0.32 2 -1 2 C-1.2578125 2.58394531 -1.515625 3.16789062 -1.78125 3.76953125 C-3.09698364 6.17749249 -4.54158592 7.77472693 -6.5 9.6875 C-7.1084375 10.28949219 -7.716875 10.89148438 -8.34375 11.51171875 C-10 13 -10 13 -12 14 C-12.495 15.2375 -12.495 15.2375 -13 16.5 C-14 19 -14 19 -16 20 C-17.13350534 22.01669827 -17.13350534 22.01669827 -18 24 C-18.33 23.34 -18.66 22.68 -19 22 C-15.2563033 12.60176142 -8.3336842 5.44240601 0 0 Z " fill="#BEC4C9" transform="translate(41,88)"/>
<path d="M0 0 C-4.33333333 4.33333333 -8.66666667 8.66666667 -13 13 C-13.6953125 11.2578125 -13.6953125 11.2578125 -14 9 C-11.55572413 4.976813 -8.2905726 1.71698478 -4.1875 -0.5625 C-2 -1 -2 -1 0 0 Z " fill="#26354B" transform="translate(58,106)"/>
<path d="M0 0 C-2.91850212 1.94566808 -4.57622848 2.5152457 -7.9375 3.1875 C-8.79214844 3.36667969 -9.64679688 3.54585938 -10.52734375 3.73046875 C-13.01134859 4.00123705 -14.64449502 3.77059444 -17 3 C-11.10261508 0.70657253 -6.33393082 -0.34548714 0 0 Z " fill="#BEC2C8" transform="translate(280,77)"/>
<path d="M0 0 C0.66 0 1.32 0 2 0 C1.125 7.75 1.125 7.75 0 10 C-1.58538318 7.48203847 -2.0373656 6.32134414 -1.6875 3.3125 C-1 1 -1 1 0 0 Z " fill="#C1C5C9" transform="translate(243,90)"/>
</svg>
